<svg xmlns="http://www.w3.org/2000/svg" version="1.1" height="200px" width="400px"> <g>
  <g>
    <g fill="#ff6401">
      <g>
        <path x="0" y="0" d="M94.34391,162.8942c-0.04387,0 -0.08775,-0.00183 -0.13345,-0.00914L53.96651,157.05001c-0.30162,-0.04387 -0.5612,-0.23216 -0.69648,-0.50819c-0.13345,-0.27055 -0.12248,-0.59228 0.02559,-0.85917L71.88115,122.81477c0.16452,-0.29066 0.47163,-0.4698 0.8025,-0.4698c0.00183,0 0.00183,0 0.00183,0c0.3327,0 0.63981,0.1828 0.8025,0.47346L95.14641,161.52501c0.17001,0.30528 0.15355,0.68185 -0.0457,0.97068c-0.17183,0.25227 -0.45701,0.39851 -0.7568,0.39851z M55.56604,155.41941L92.62739,160.7938L72.68182,125.1455z"></path>
      </g>
      <g>
        <path x="0" y="0" d="M94.34391,162.8942c-0.31259,0 -0.6069,-0.15721 -0.77691,-0.42227c-0.18646,-0.29066 -0.1956,-0.66174 -0.02194,-0.95971L114.87262,124.92797L72.66903,124.18762L72.66903,124.18762c-0.00183,0 -0.00366,0 -0.00366,0c-0.00366,0 -0.00548,0.00366 -0.00731,0c-0.00183,0.00366 -0.00366,0 -0.00548,0c-0.00183,0 -0.00183,0 -0.00366,0c-0.00183,0 -0.00183,0 -0.00183,0c-0.04022,0 -0.08409,-0.00731 -0.12431,-0.01462L39.31856,118.46956L54.95182,155.78136c0.1371,0.3327 0.07312,0.71659 -0.17001,0.97799c-0.24313,0.26689 -0.61787,0.36743 -0.95971,0.25592L27.86964,148.72336c-0.02559,-0.00731 -0.05301,-0.01828 -0.07678,-0.02742c-0.12431,-0.05301 -0.23033,-0.12796 -0.3199,-0.21936c-7.47296,-7.63383 -7.47296,-8.02137 -7.47296,-8.46924L20,112.82279c0,-0.05484 0.00548,-0.11334 0.01645,-0.17366L20.01645,112.64913L20.01645,112.64913c0,-0.00366 0,-0.00366 0,-0.00366L20.01645,112.64547c0,-0.00366 0,-0.00366 0.00183,-0.00366L20.01828,112.64182c0.00183,-0.00914 0.00366,-0.02376 0.00731,-0.0329L26.0142,86.95991c0.06581,-0.27969 0.25592,-0.51185 0.51733,-0.62884L36.36264,81.87617L36.36264,81.87617c0.14807,-0.06764 0.30345,-0.0914 0.45701,-0.07861L62.45769,83.79377c0.03108,0.00183 0.06398,0.00548 0.09506,0.01097c0.00183,0 0.00183,0 0.00183,0c0.02559,0.00366 0.04753,0.00914 0.07129,0.01462L95.27437,92.20999L130.07447,84.27271c0.02194,-0.00366 0.04387,-0.00914 0.06764,-0.0128c0.03108,-0.00548 0.06215,-0.00914 0.09506,-0.00914L162.33361,82.40813c0.28152,-0.01828 0.55206,0.09689 0.73852,0.30528c0.18646,0.20839 0.26872,0.49174 0.22119,0.76777L157.36869,118.29224L179.6194,114.41683L184.79454,109.53601c0.27238,-0.25958 0.6782,-0.32539 1.02004,-0.16452c0.34184,0.15721 0.55389,0.50819 0.53195,0.88476L184.50388,143.74199c-0.02742,0.47529 -0.41313,0.85369 -0.88842,0.87014c-0.48808,0.0128 -0.88659,-0.33636 -0.94692,-0.80799L179.25745,116.35271L157.52407,120.13854L169.84861,150.72139c0.10054,0.25227 0.08409,0.53744 -0.04022,0.77874c-0.12796,0.23947 -0.35646,0.40948 -0.62153,0.4698L137.70647,158.7263c-0.03108,0.00548 -0.06032,0.00914 -0.0914,0.0128L137.61506,158.7391c-0.00183,0 -0.00366,0 -0.00548,0c-0.00183,0 -0.00183,0 -0.00183,0c-0.00548,0.00366 -0.01097,0.00366 -0.01645,0.00366L94.42983,162.89237c-0.02925,0.00183 -0.0585,0.00183 -0.08592,0.00183z M116.48676,125.82004L96.0458,160.88337L135.93694,157.04818z M156.16402,121.69236L139.16523,156.52902L167.7281,150.39783z M118.01316,124.78173L137.40484,155.92394L154.67601,120.53523z M29.29733,147.24266L52.47667,154.64981L37.9384,119.94843z M21.84265,139.76604c0.48625,0.6526 2.49708,2.81333 4.75652,5.16234L21.84265,121.85689z M22.12599,114.09144L28.33031,144.19351L36.64781,117.92115z M181.02515,115.62881L183.23158,133.36978L184.3814,112.46084z M74.50436,122.37787L114.68799,123.07984L95.2305,94.73998z M130.58083,87.0897L117.8267,122.94822L154.53526,118.69441z M39.4648,116.62325L71.42232,122.11464L61.98971,86.77528z M96.79163,93.7565L116.19976,122.02141L128.85517,86.44441z M63.6916,85.99654L73.08765,121.19514L93.70044,93.70897z M132.06518,85.99288L155.69239,117.17166L161.28615,84.31476z M22.27589,112.2232L36.85987,116.06936L35.9294,86.2415z M37.69527,83.71334L38.65681,114.63071L60.64429,85.49932z M27.70512,87.82091L23.45679,106.0134L34.6772,84.66208z"></path>
      </g>
      <g>
        <path d="M168.99493,151.99003c-0.21388,0 -0.4241,-0.07678 -0.59594,-0.21753c-0.28152,-0.23947 -0.39485,-0.62336 -0.28517,-0.97799L179.11852,115.1846L176.37283,87.26153c-0.04387,-0.46432 0.26324,-0.88842 0.71659,-0.99079c0.45701,-0.10237 0.91401,0.15355 1.06939,0.59228L186.30083,109.90344L184.56238,110.51765L178.95217,94.63578L180.97214,115.19191c0.01097,0.12065 0,0.24313 -0.03656,0.36012L170.51767,149.26628L183.17308,142.87368L184.00483,144.51707L169.41171,151.88949c-0.13527,0.06581 -0.27603,0.10054 -0.41679,0.10054z"></path>
      </g>
      <g>
        <path x="0" y="0" d="M177.28684,88.09146c-0.07495,0 -0.15173,-0.01097 -0.2285,-0.03108L162.15812,84.22153c-0.3656,-0.09506 -0.63798,-0.40399 -0.68368,-0.78057L158.86402,62.2432c-0.05301,-0.42045 0.18829,-0.82078 0.58314,-0.97251c0.39485,-0.15173 0.84272,-0.01462 1.08402,0.3327L178.04364,86.64c0.21936,0.31625 0.22119,0.73669 0.00183,1.05477c-0.17549,0.25227 -0.46066,0.39668 -0.75863,0.39668z M163.22751,82.59459L175.10418,85.6547L161.14356,65.69451z"></path>
      </g>
      <g>
        <path d="M96.18473,93.21906L94.34574,93.10207L96.22495,63.90304L62.89458,85.48469c-0.29797,0.19194 -0.68002,0.19743 -0.98165,0.01462c-0.30162,-0.18463 -0.47346,-0.52647 -0.4369,-0.87745L64.14678,57.62012L37.38268,83.37881c-0.30894,0.29614 -0.78239,0.34184 -1.14252,0.10968c-0.35829,-0.23399 -0.51002,-0.68551 -0.36378,-1.08767L41.07163,68.0618L27.67222,87.68929L26.14947,86.64914L43.66194,60.99831c0.26141,-0.38206 0.76777,-0.51367 1.1809,-0.30162c0.41496,0.21205 0.6069,0.69831 0.44604,1.1352L38.96027,79.30232L64.67508,54.55453c0.27786,-0.26689 0.69282,-0.33453 1.04015,-0.16452c0.34732,0.16818 0.55206,0.53561 0.5155,0.9195L63.49966,82.89621L96.76056,61.3566c0.29248,-0.18829 0.6654,-0.19743 0.96702,-0.02194c0.2998,0.17732 0.47529,0.50819 0.45518,0.85369z"></path>
      </g>
      <g>
        <path x="0" y="0" d="M159.77803,63.05484c-0.07861,0 -0.15538,-0.00914 -0.23216,-0.03108L132.97371,56.112c-0.33818,-0.08775 -0.59594,-0.35646 -0.66906,-0.69465L129.69241,43.43649c-0.07861,-0.3656 0.06946,-0.74218 0.37657,-0.95423c0.30711,-0.21205 0.71293,-0.21936 1.02552,-0.01645L160.27891,61.35843c0.38023,0.24678 0.52464,0.73121 0.34367,1.14617c-0.15173,0.34001 -0.48625,0.55024 -0.84455,0.55024z M133.98461,54.47044L154.48224,59.80278L131.97013,45.22795z"></path>
      </g>
      <g>
        <path x="0" y="0" d="M97.26143,63.05301c-0.23399,0 -0.46432,-0.08957 -0.63798,-0.25592c-0.21571,-0.20657 -0.31625,-0.50636 -0.27238,-0.80067L99.42399,41.56824c0.04204,-0.28152 0.21022,-0.52647 0.45701,-0.6654c0.24678,-0.13893 0.54292,-0.15721 0.80433,-0.04936L133.55685,54.37172c0.37657,0.15538 0.6069,0.53744 0.56669,0.94509c-0.04022,0.40582 -0.34367,0.73487 -0.74218,0.81164L97.4351,63.03656c-0.05667,0.0128 -0.11517,0.01645 -0.17366,0.01645z M101.06921,43.00142L98.36739,60.98003L129.99769,54.89637z"></path>
      </g>
      <g>
        <path x="0" y="0" d="M179.24648,115.72387L161.6481,83.89614L133.93708,57.20516L131.20418,85.26167c-0.0329,0.32539 -0.23582,0.61056 -0.53195,0.74766c-0.29614,0.1371 -0.64529,0.10603 -0.91401,-0.08043L96.88486,62.99269L65.34962,56.1705L44.68929,62.40041c-0.44238,0.13527 -0.91767,-0.08226 -1.10778,-0.50453c-0.19011,-0.4241 -0.03656,-0.92132 0.36012,-1.16445L73.74025,42.45301c0.05667,-0.03656 0.12065,-0.06398 0.18646,-0.08592c0.00183,0 0.00183,0 0.00183,0c0.00183,0 0.00183,0 0.00366,0L73.93402,42.36526c0.00183,0 0.00183,0 0.00366,0c0.00183,0 0.00183,0 0.00548,0c0,0 0,0 0.00183,0c0.00183,0 0.00183,0 0.00366,0c0,0 0,0 0.00183,0L73.95047,42.36526c0.02742,-0.00731 0.05484,-0.01645 0.08226,-0.02194L74.03273,42.34333c0.00183,0 0.00183,0 0.00366,0L74.03822,42.34333c0,0 0.00366,-0.00183 0.00731,-0.00183L74.04736,42.3415c0.00183,0 0.00183,0 0.00183,0c0,0 0.00183,0 0.00366,0c0,0 0,0 0.00183,0c0,0 0,0 0.00183,0L103.00874,37.12066c0.11334,-0.02011 0.22667,-0.02011 0.33818,0.00183L130.76363,42.34333c0.47711,0.0914 0.80067,0.53378 0.74401,1.01638c-0.05667,0.4826 -0.4826,0.83541 -0.96337,0.80981L100.48059,42.64495L68.51759,54.98228L97.45521,61.24327c0.11882,0.02559 0.23216,0.07495 0.3327,0.14624L129.52057,83.52688L132.28455,55.14315c0.03656,-0.35281 0.26689,-0.6526 0.59959,-0.77508c0.3327,-0.12248 0.70379,-0.04387 0.95788,0.19925L163.02643,82.67685c0.06398,0.06398 0.12065,0.1371 0.16635,0.21753L180.85697,114.84276z M70.63261,46.52402L50.97404,58.57984L64.75551,54.42657z M74.70545,44.13296L67.95455,53.21276L94.49198,42.96851z M102.1386,40.87177L117.27464,41.63954L103.55898,39.02729z M100.98512,39.3472L89.52158,41.41652L99.86088,40.80779z"></path>
      </g>
    </g>
    <g>
      <g fill="#ff6401">
        <g>
          <g>
            <path d="M282.25104,47.10323L279.2615,47.37501c-1.57026,0.12079 -2.56678,1.2079 -2.98954,3.26132L264.85735,100.00906L252.44622,100.00906L242.93404,59.69554L242.66226,59.69554L233.42186,100.00906L220.64836,100.00906L208.14664,47.73737L202.98289,47.4656L202.98289,39.76526L225.44975,39.76526L225.44975,47.10323L222.46021,47.37501c-1.87224,0.18118 -2.80836,0.96632 -2.80836,2.3554c0,0.24158 0.0302,0.51336 0.09059,0.81533L227.62396,85.51431L227.98633,85.51431L237.40792,44.56665L249.09431,44.56665L258.87826,85.6955L259.05945,85.6955L266.75978,47.82797L261.8678,47.4656L261.8678,39.76526L282.25104,39.76526L282.25104,47.10323z"></path>
            <path d="M297.8329,66.21818L307.16389,66.21818c3.62369,-2.295 5.43553,-5.52612 5.43553,-9.69336c0,-4.6504 -2.62717,-6.9756 -7.88152,-6.9756c-1.93263,0 -3.54819,0.21138 -4.84668,0.63415c-1.29849,0.42276 -2.05342,0.86063 -2.2648,1.31359c-0.21138,0.45296 -0.31707,1.1626 -0.31707,2.12892L297.28934,60.1485L288.04894,59.51436L288.04894,45.01961c6.03948,-3.01974 12.01856,-4.52961 17.93725,-4.52961c5.91869,0 10.34261,1.34378 13.27175,4.03135c2.92915,2.68757 4.39372,6.17537 4.39372,10.4634c0,3.14053 -0.75493,5.99418 -2.2648,8.56096c-1.50987,2.56678 -3.5029,4.6353 -5.97908,6.20556c6.09987,1.93263 9.14981,6.22066 9.14981,12.86409c0,5.55632 -1.72125,10.04063 -5.16375,13.45294c-3.4425,3.41231 -8.54586,5.11846 -15.31008,5.11846c-3.32171,0 -6.62833,-0.45296 -9.91984,-1.35888c-3.29152,-0.90592 -5.90359,-1.96283 -7.83622,-3.17073L289.49842,88.05089c4.77119,2.65737 9.51218,3.98606 14.22297,3.98606c6.58303,0 9.87455,-2.92915 9.87455,-8.78744c0,-3.01974 -0.99651,-5.23925 -2.98954,-6.65852c-1.99303,-1.41928 -5.37514,-2.12892 -10.14632,-2.12892L297.01757,74.46207L297.8329,66.21818z"></path>
            <path d="M369.49131,49.36803c-0.66434,-1.1475 -3.14053,-1.72125 -7.42856,-1.72125c-5.61671,0 -9.87455,1.90244 -12.7735,5.70731c-2.89895,3.80487 -4.34842,9.3008 -4.34842,16.48778c0,14.91751 5.58652,22.37627 16.75955,22.37627c0.18118,0 0.98142,0 2.40069,0c1.41928,0 2.76306,-0.19628 4.03135,-0.58885c1.26829,-0.39257 2.02323,-0.80023 2.2648,-1.22299c0.24158,-0.42276 0.36237,-1.08711 0.36237,-1.99303L370.7596,81.16589L380,81.80003L380,97.47248c-4.71079,2.47619 -10.68988,3.71428 -17.93725,3.71428c-9.2404,0 -16.29149,-2.59698 -21.15327,-7.79093c-4.86178,-5.19395 -7.29267,-12.92448 -7.29267,-23.1916c0,-5.67711 0.81533,-10.62948 2.44599,-14.85712c1.63066,-4.22763 3.83507,-7.51915 6.61323,-9.87455c5.43553,-4.52961 11.89777,-6.79441 19.38673,-6.79441c6.03948,0 11.71659,1.23809 17.03133,3.71428L379.09408,57.79311L369.85368,58.42725L369.85368,51.36106c0,-0.90592 -0.12079,-1.57026 -0.36237,-1.99303z"></path>
          </g>
          <g>
            <polygon points="202.98,110.56 202.98,106.11 380,106.11 380,115.02 202.98,115.02 202.98,110.56"></polygon>
          </g>
        </g>
        <g>
          <path d="M228.80166,160.61522L202.98289,160.61522L202.98289,156.21244L204.77662,156.04938c1.05087,-0.10871 1.5763,-0.61603 1.5763,-1.52195L206.35292,129.25221L203.25467,129.08915L203.25467,124.46895L216.3543,124.46895L216.3543,128.87173L214.56057,129.03479c-1.05087,0.10871 -1.5763,0.6885 -1.5763,1.73937L212.98427,155.01663L222.00725,155.01663c0.50732,0 0.84251,-0.13589 1.00557,-0.40766c0.16307,-0.27178 0.2446,-0.71568 0.2446,-1.3317L223.25742,149.47239L228.80166,149.85287L228.80166,160.61522z"></path>
          <path x="0" y="0" d="M252.98373,154.52743L261.73494,129.19786L258.31055,128.87173L258.31055,124.46895L270.75792,124.46895L281.8464,155.83196L281.90075,155.83196L284.99901,155.99502L284.99901,160.61522L270.97534,160.61522L270.97534,156.21244L273.04084,156.04938c0.61603,-0.07247 1.03275,-0.21742 1.25017,-0.43484c0.21742,-0.21742 0.23554,-0.61603 0.05436,-1.19582L273.2039,151.04869L260.48476,151.04869L258.8541,155.83196L262.11542,155.99502L262.11542,160.61522L249.55935,160.61522L249.55935,156.21244L251.35307,156.04938c0.76097,-0.07247 1.30453,-0.57979 1.63066,-1.52195z M266.84433,130.55674L261.78929,146.048L271.89938,146.048L267.0074,130.55674L266.84433,130.55674z"></path>
          <path x="0" y="0" d="M306.02847,124.46895L321.35667,124.46895c7.82716,0 11.74075,3.02578 11.74075,9.07734c0,3.33379 -1.6669,5.87037 -5.00069,7.60974c2.13798,0.54355 3.81393,1.54007 5.02787,2.98954c1.21394,1.44947 1.8209,3.33379 1.8209,5.65295c0,3.51498 -1.18676,6.1965 -3.56027,8.04459c-2.37351,1.84808 -5.82508,2.77212 -10.35469,2.77212L305.75669,160.61522L305.75669,156.21244L307.55042,156.04938c1.05087,-0.10871 1.5763,-0.61603 1.5763,-1.52195L309.12672,129.25221L306.02847,129.08915z M315.75807,144.14557L315.75807,155.50583L320.86747,155.50583c4.71079,0 7.06619,-1.92055 7.06619,-5.76166c0,-1.81184 -0.58885,-3.1979 -1.76655,-4.15818c-1.1777,-0.96028 -2.85365,-1.44042 -5.02787,-1.44042z M315.75807,129.46963L315.75807,139.30794L319.78036,139.30794c2.24669,0 3.90452,-0.46202 4.97351,-1.38606c1.06899,-0.92404 1.60348,-2.21951 1.60348,-3.8864c0,-1.6669 -0.53449,-2.84459 -1.60348,-3.53309c-1.06899,-0.6885 -2.6,-1.03275 -4.59302,-1.03275L315.75807,129.46963z"></path>
          <path d="M366.46553,155.72325c4.34842,0 6.52264,-1.73937 6.52264,-5.21811c0,-1.81184 -0.96028,-3.15261 -2.88083,-4.02229c-1.01463,-0.50732 -2.32822,-0.9784 -3.94076,-1.41324c-1.61254,-0.43484 -2.9533,-0.87874 -4.02229,-1.3317c-1.06899,-0.45296 -2.14703,-1.07805 -3.23414,-1.87526c-2.13798,-1.59442 -3.20696,-4.04947 -3.20696,-7.36514c0,-3.31567 1.15052,-5.92473 3.45156,-7.82716c2.30104,-1.90244 5.3087,-2.85365 9.02298,-2.85365c3.71428,0 7.16584,0.74286 10.35469,2.22857L378.53241,134.19855L372.98817,134.57903L372.98817,131.42643c0,-0.54355 -0.07247,-0.94216 -0.21742,-1.19582c-0.39861,-0.6885 -1.67596,-1.03275 -3.83205,-1.03275c-2.15609,0 -3.75052,0.38049 -4.78327,1.14146c-1.03275,0.76097 -1.54913,1.93867 -1.54913,3.53309c0,1.15958 0.43484,2.17421 1.30453,3.0439c0.57979,0.57979 1.44042,1.05993 2.58188,1.44042c1.14146,0.38049 2.3554,0.77003 3.64181,1.16864c1.28641,0.39861 2.42787,0.83345 3.42438,1.30453c0.99651,0.47108 2.03832,1.12334 3.12543,1.95679c2.21045,1.63066 3.31567,4.14912 3.31567,7.55539c0,3.40627 -1.22299,6.08779 -3.66898,8.04459c-2.44599,1.95679 -5.67107,2.93519 -9.67524,2.93519c-4.00417,0 -7.60068,-0.74286 -10.78953,-2.22857L355.86624,150.50514L361.41049,150.12465L361.41049,153.44032c0,0.54355 0.07247,0.94216 0.21742,1.19582c0.14495,0.25366 0.58885,0.49826 1.3317,0.7338c0.74286,0.23554 1.91149,0.35331 3.50592,0.35331z"></path>
        </g>
      </g>
      <g></g>
    </g>
  </g>
  <g></g>
</g>
</svg>